<svg xmlns="http://www.w3.org/2000/svg" xmlns:xlink="http://www.w3.org/1999/xlink" width="565" height="386" viewBox="0 0 565 386">
  <defs>
    <circle id="9.discuss-a" cx="19.417" cy="18.5" r="18.5"/>
    <rect id="9.discuss-c" width="110" height="110" rx="7"/>
    <rect id="9.discuss-e" width="104" height="74" x=".899" y=".017" rx="6"/>
    <path id="9.discuss-g" d="M0.572833433,0 L56.131275,0 L56.131275,21.9350649 C56.131275,37.2771049 43.6940942,49.7142857 28.3520542,49.7142857 C13.0100142,49.7142857 0.572833433,37.2771049 0.572833433,21.9350649 L0.572833433,0 L0.572833433,0 Z"/>
    <path id="9.discuss-i" d="M23.2804698,4.95984698 C24.7939512,17.2340108 22.4135874,23.9954077 16.1393785,25.2440377 C16.4599813,27.8339395 18.2354931,30.6544752 21.465914,33.705645 C26.3115454,38.2823996 17.5182099,42.5223793 9.78533932,37.4590559 C4.63009229,34.083507 1.38643994,31.5795617 0.0543822732,29.94722 C4.87160087,28.6143267 6.43346773,23.8019132 4.73998287,15.5099796 C1.24151991,13.3158935 -0.320346959,11.1994242 0.0543822732,9.16057161 C0.616476122,6.10229268 3.48172455,7.50455719 4.44442574,9.81263329 C5.40712693,12.1207094 5.81537113,13.4975295 6.17648563,9.81263329 C6.53760013,6.1277371 6.53760013,7.18484316 8.08562618,4.95984698 C9.11764354,3.4765162 9.47175411,1.82323387 9.14795787,0 C9.66702983,1.24110256 10.8304031,2.57876468 12.6380777,4.01298636 C14.4457523,5.44720803 17.9932163,5.76282824 23.2804698,4.95984698 Z"/>
    <path id="9.discuss-k" d="M7.28306304e-14,18.1858857 L3.60141211,14.2126635 C3.78591584,11.1104114 4.30823578,8.6976777 5.16837192,6.97446251 C6.02850806,5.25124732 6.65196397,3.67899795 7.03873964,2.25771439 C8.15842171,2.7561359 8.58367659,3.71391383 8.31450427,5.1310482 C7.9107458,7.25674974 7.2310123,9.03613769 8.33859902,8.59626852 C9.44618573,8.15639935 17.6822737,-0.677154483 19.3567482,0.0415681184 C19.5530178,0.125584651 19.6338813,0.33342247 19.5993388,0.665081576 C19.5669556,0.976008329 19.3104598,1.50688593 18.8298513,2.25771439 C19.9609565,1.5408588 20.7179515,1.35283665 21.1008364,1.69364791 C21.4837214,2.03445917 21.4837214,2.49593633 21.1008364,3.07807938 C21.7048927,2.85223087 22.1129018,2.85223087 22.3248638,3.07807938 C22.5368257,3.30392789 22.4404888,3.85547971 22.035853,4.73273484 C22.7100036,4.93542458 22.777934,5.58710513 22.2396442,6.68777647 C21.4322094,8.33878348 20.4312334,9.83799881 20.139276,10.3831323 C19.8473186,10.9282658 18.3659694,14.5129616 11.4939438,18.7969891 C9.26275509,20.5021042 7.30271556,22.5581119 5.61382524,24.9650124 L7.28306304e-14,18.1858857 Z"/>
    <path id="9.discuss-m" d="M18.2313906,23.2553915 C16.1844985,22.1095132 14.809934,20.9674696 14.1076971,19.8292606 C10.7707031,14.4205495 9.6406833,6.97888587 10.3247681,1.24344979e-14 L3.3807502,1.24344979e-14 C3.21303138,1.74154838 2.72083527,3.34418072 1.90416187,4.80789702 C0.679151765,7.00347146 -0.395217269,9.23077993 0.141967248,10.8381278 C0.50009026,11.909693 3.6372351,16.6818414 9.55340176,25.1545731 L18.2313906,23.2553915 Z"/>
    <path id="9.discuss-o" d="M18.2313906,23.2553915 C16.1844985,22.1095132 14.809934,20.9674696 14.1076971,19.8292606 C10.7707031,14.4205495 9.6406833,6.97888587 10.3247681,-2.14939178e-13 L3.3807502,-2.14939178e-13 C3.21303138,1.74154838 2.72083527,3.34418072 1.90416187,4.80789702 C0.679151765,7.00347146 -0.395217269,9.23077993 0.141967248,10.8381278 C0.50009026,11.909693 3.6372351,16.6818414 9.55340176,25.1545731 L18.2313906,23.2553915 Z"/>
    <path id="9.discuss-q" d="M25.4448016,-1.42108547e-14 C20.5768695,6.83799926 19.242864,15.4935055 21.4427854,25.9665186 C24.7426674,41.6760383 20.0854325,52.2323114 16.5574679,69.2006574 C14.2054915,80.5128881 8.68633554,106.021427 3.62376795e-13,145.726274 L12.3216101,147.645505 C16.6976202,138.377058 21.092401,127.456315 25.5059525,114.883278 C29.9195039,102.310241 35.39275,86.0503354 41.9256907,66.1035608 C43.0019691,84.362167 43.7031355,99.1926879 44.02919,110.595124 C44.3552444,121.997559 44.7278074,134.806185 45.1468791,149.021 L57.6269084,149.964631 C60.7954747,130.520429 62.6733654,110.794165 63.2605806,90.785841 C63.8477957,70.7775165 63.256379,40.7387881 61.4863304,0.669655747 L25.4448016,-1.42108547e-14 Z"/>
    <path id="9.discuss-s" d="M63.6099146,68.1259531 C62.2314613,58.3402827 64.0870408,51.4305082 66.9578264,43.8239206 C68.8716835,38.7528622 68.5294621,34.1689596 65.9311623,30.0722129 L90.3260392,32.8322972 C91.6886457,32.9864652 93.0352511,32.4318784 93.8940875,31.36283 L112.901833,7.70267645 L112.901833,7.70267645 L106.408453,-2.84217094e-14 L88.289215,18.0485205 C87.7281913,18.6073559 86.8902858,18.7825656 86.1523486,18.4953494 C72.460476,13.1662682 63.9008359,10.0100102 60.4734283,9.02657533 C58.6189146,8.49445495 55.3519094,7.99940278 50.6724129,7.54141884 C51.9938536,10.5014628 50.8379313,12.3077546 47.2046462,12.9602942 C43.571361,13.6128338 39.4220813,11.5830489 34.7568071,6.87093936 C25.4440839,8.30803001 19.2146005,11.8294138 16.0683567,17.4350906 C11.3489912,25.8436059 -8.23731156,53.1435725 3.91552259,62.3423769 C12.017412,68.4749131 19.0473587,73.6126231 25.0053627,77.7555069 L29.8328952,70.8913651 L13.2081102,53.5819711 L23.8674411,36.1690345 L28.343143,57.3570788 L27.0348225,66.7235935 L63.6099146,68.1259531 Z"/>
    <path id="9.discuss-u" d="M17.6493597,0.946775866 L0.566747873,71.7970184 C0.32024065,72.8194087 0.949218155,73.8480534 1.97160845,74.0945606 C2.11777274,74.1298021 2.26759647,74.1476089 2.41794926,74.1476089 C3.84536053,74.1476089 5.09600752,73.1918323 5.47083666,71.8145139 L24.7570766,0.946775866 L24.7570766,0.946775866 L17.6493597,0.946775866 Z"/>
    <path id="9.discuss-w" d="M17.6493597,0.946775866 L0.566747873,71.7970184 C0.32024065,72.8194087 0.949218155,73.8480534 1.97160845,74.0945606 C2.11777274,74.1298021 2.26759647,74.1476089 2.41794926,74.1476089 C3.84536053,74.1476089 5.09600752,73.1918323 5.47083666,71.8145139 L24.7570766,0.946775866 L24.7570766,0.946775866 L17.6493597,0.946775866 Z"/>
    <path id="9.discuss-y" d="M84.0320376,0.0442488155 C82.0976775,0.42484752 76.5004291,4.53760418 73.054792,17.2854144 C71.6610301,22.4419098 70.5876769,27.4595555 69.4902099,34.3412059 C67.8745357,44.4722676 68.4377528,55.0517299 60.627062,58.8177943 C46.7003746,65.5327957 4.95780256,60.7351322 1.90851199,62.9052458 C-1.14077858,65.0753594 -0.461165386,69.0180581 7.37255031,69.5114641 C15.206266,70.0048701 53.8003197,70.9313072 61.6452648,68.368693 C69.4902099,65.8060788 77.0240468,59.9627816 78.0538406,44.5537216 C79.0836345,29.1446617 80.0493552,16.6070454 83.4991546,9.13289749 C86.9489541,1.65874961 85.9663977,-0.336349889 84.0320376,0.0442488155 Z"/>
    <path id="9.discuss-A" d="M1.10431602,1.15605923 C-0.653750341,16.0604633 4.02955033,25.5789406 10.059949,23.5155896 C10.7713281,24.9539543 10.6404145,27.9323933 9.66720827,32.4509065 C8.28054467,38.889067 12.9386892,41.7421704 15.9868164,41.3667137 C19.0349435,40.9912571 23.9934557,34.6918266 23.9934557,30.3242246 C23.9934557,28.9915213 23.2188301,24.8272882 21.6695791,17.8315254 C21.391974,15.7983377 21.2531714,14.3251071 21.2531714,13.4118333 C21.2531714,10.9159366 21.4219198,10.1788546 21.6695791,9.77693898 C23.8428838,6.24997559 21.7716862,4.45635064 20.3377971,5.07485135 C18.903908,5.69335206 18.7268478,7.92783684 18.616701,8.3316593 C18.5065542,8.73548177 18.471526,10.4869773 17.8516865,7.78091431 C17.231847,5.07485135 16.314444,5.5125937 15.4298734,4.01680975 C14.5453029,2.52102581 14.6832776,0.635337711 13.2214869,0.306429461 C10.9448704,-0.2058176 6.96939254,1.76748141 4.28230957,1.91489743 C2.08514596,2.03543599 1.11923707,1.0295627 1.10431602,1.15605923 Z"/>
    <path id="9.discuss-C" d="M31.8833858,0.480297492 C32.3247618,3.49117409 33.1832746,5.68984449 34.4589241,7.07630868 C36.3723984,9.15600497 41.9038504,11.1143904 44.2665,8.75606622 C45.8415997,7.18385008 46.2825246,4.99192949 45.5892746,2.18030444 L51.2125307,2.65532872 C56.924973,3.13788701 61.9569926,6.60362315 64.4444546,11.7686393 L77.5545735,38.9907537 L77.5545735,38.9907537 L62.8795458,45.7931669 L59.4791404,39.3313361 C60.7969742,52.2299715 61.4558912,64.424115 61.4558912,75.9137666 L17.5438635,77.4099389 C18.7743671,67.3400125 19.3896189,60.4710193 19.3896189,56.8029594 C19.3896189,53.1348995 19.0110153,47.311025 18.2538082,39.3313361 L17.2998028,43.2021127 L0.455906478,41.2882471 C3.44616348,22.7248313 7.02140045,11.6348599 11.1816174,8.0183328 C15.3418343,4.4018057 22.2424238,1.88912727 31.8833858,0.480297492 Z"/>
    <path id="9.discuss-E" d="M39.6050771,2.07416259 L41.3422268,10.1801092 L21.9195396,9.07868474 C15.3797098,7.4122415 11.1566709,6.7565539 9.25042314,7.11162194 C7.34417535,7.46668998 5.09695404,8.48951905 2.50875922,10.1801092 C0.403522108,13.1010955 -0.376750278,14.7507415 0.167942063,15.1290473 C0.712634405,15.507353 1.89980806,14.4193946 3.72946303,11.8651719 L7.97590182,10.3596402 C6.00332793,11.2502922 4.85817247,11.9098383 4.54043545,12.3382787 C4.06382993,12.9809392 2.19765327,16.9965183 2.96355815,17.4893608 C3.47416141,17.8179225 4.41232675,16.579049 5.77805417,13.7727403 L9.6023162,12.3881453 C7.28401707,13.5365351 6.12486751,14.3337341 6.12486751,14.7797423 C6.12486751,15.4487546 5.33751397,19.3218753 6.12486751,19.1858224 C6.64976988,19.0951205 7.10386707,17.9441896 7.4871591,15.7330299 L10.7890273,14.5999982 C9.35210302,15.3348708 8.58765873,15.9516206 8.49569445,16.4502475 C8.35774803,17.1981877 8.01048867,18.9292044 8.39368622,19.0575134 C8.77688376,19.1858224 9.51855517,17.5838908 9.76176725,16.8584624 C12.9871051,16.5558165 16.053148,15.8617948 18.9598961,14.7763973 C33.6973322,20.622671 43.0302295,23.8580279 46.958588,24.482468 C52.8511256,25.4191281 55.3728127,20.7684334 55.3728127,16.1426037 C55.3728127,13.0587172 54.973802,7.82498287 54.1757807,0.441400649 L39.6050771,2.07416259 Z"/>
    <path id="9.discuss-G" d="M11.8617657,-5.86197757e-14 L0,5.52669132 C3.84708112,13.9273497 7.5364589,18.6719175 11.0681333,19.7603948 C12.5111188,20.2051292 16.1933414,21.2224136 20.5455822,21.8669562 C24.7454294,22.48893 33.8313866,23.4736603 47.8034539,24.821147 L66.3627584,24.821147 C65.0346281,19.9940378 59.1723656,18.5225255 48.775971,20.4066102 L16.0702425,8.77120952 L11.8617657,-5.86197757e-14 Z"/>
    <polygon id="9.discuss-I" points=".551 6.684 5.03 26.456 14.761 25.244 16.046 21.852 10.532 .984"/>
    <polygon id="9.discuss-K" points=".15 2.699 5.003 14.101 15.761 16.244 17.497 12.506 13.741 0"/>
    <path id="9.discuss-M" d="M74.4794868,0.546040122 C54.3423862,-1.07843758 41.5642108,0.921719187 36.1449606,6.54651041 C30.7257104,12.1713016 18.6773902,34.8670645 2.55795385e-13,74.633799 L18.4937581,76.9808095 L47.2101563,29.7023719 L57.6213622,23.2538515 L74.4794868,0.546040122 Z"/>
    <path id="9.discuss-O" d="M86.3104879,0.769871556 C88.2723938,20.304914 80.969555,29.6618791 64.4019713,28.8407668 C47.8343877,28.0196545 33.4570093,25.5579338 21.2698359,21.4556046 L36.3315923,78.0615489 L19.3026505,79.3090035 C2.96698473,37.3863306 -2.96846803,12.9905885 1.49629221,6.12177719 C4.48678234,1.52105706 18.1596496,-0.486466878 42.514894,0.0992053695 C50.5194256,0.291690895 65.1179569,0.51524629 86.3104879,0.769871556 Z"/>
    <rect id="9.discuss-Q" width="71" height="52" rx="3"/>
    <circle id="9.discuss-S" cx="4" cy="4" r="4"/>
  </defs>
  <g fill="none" fill-rule="evenodd">
    <g transform="translate(49 5)">
      <path stroke="#E7F3FF" d="M38.2632405,378 C2.81806991,284.426141 11.1010932,208.463931 85.2585312,179.778358 C186.320984,140.68539 175.320984,219.823488 225.254741,90.8180176 C275.188499,-38.1874526 425.637047,-18.0742712 471.37672,78.1514771 C501.869836,142.301976 498.262431,242.251484 460.554506,378" transform="matrix(-1 0 0 1 509.827 0)"/>
      <path fill="#F6FAFF" d="M24.9343614,379 C-9.7714519,273.580884 5.89364501,207.507003 71.9296521,180.778358 C170.983663,140.68539 161.992105,220.823488 211.925862,91.8180176 C261.85962,-37.1874526 412.308168,-17.0742712 458.047841,79.1514771 C488.540957,143.301976 484.933552,243.251484 447.225627,379 L24.9343614,379 Z" transform="matrix(-1 0 0 1 485.498 0)"/>
      <path stroke="#0D1E54" stroke-linecap="round" d="M0,379.5 L491,379.5"/>
    </g>
    <g transform="translate(26 179)">
      <rect width="51" height="70" fill="#FF686F" rx="4"/>
      <ellipse cx="25.5" cy="19.059" fill="#FFF" rx="12.226" ry="12.129"/>
      <path stroke="#FFF" d="M8.38356164 38.4653465L43.14804 38.4653465M8.38356164 45.3960396L43.14804 45.3960396M8.38356164 52.3267327L43.14804 52.3267327M8.38356164 59.2574257L43.14804 59.2574257"/>
    </g>
    <g transform="translate(0 105)">
      <mask id="9.discuss-b" fill="#fff">
        <use xlink:href="#9.discuss-a"/>
      </mask>
      <use fill="#00C1B9" xlink:href="#9.discuss-a"/>
      <path fill="#FFF" d="M4.62927014,1.66405873 C3.2404884,10.4492737 7.34857934,15.4515676 16.953543,16.6709406 C31.3609884,18.5 38.3397569,17 37.9172217,37 C37.4946865,57 -3,41.4316678 -3,18.5 C-3,3.21222146 -0.456909954,-2.39975897 4.62927014,1.66405873 Z" mask="url(#9.discuss-b)" opacity=".2"/>
    </g>
    <g transform="translate(68)">
      <mask id="9.discuss-d" fill="#fff">
        <use xlink:href="#9.discuss-c"/>
      </mask>
      <use fill="#FFE059" xlink:href="#9.discuss-c"/>
      <path stroke="#FFF" stroke-width="2" d="M-20.3703704,1.10874286 C-3.53582646,87.596102 13.2470717,128.092844 29.9783241,122.598969 C55.0752027,114.358156 -35.9294721,-23.7285324 -4.31316293,-26.104735 C27.3031462,-28.4809375 39.899589,155.34421 74.8087077,149.08045 C109.717826,142.81669 -10.5269757,-45.2642616 23.3350722,-42.7160082 C57.19712,-40.1677548 80.1541818,122.598969 106.325037,122.598969 C132.495892,122.598969 28.6928068,-40.3500053 64.7475004,-52.1295751 C100.802194,-63.9091449 87.4344408,52.4171576 144.503275,92.648969 C182.549164,119.470177 198.894219,107.718369 193.538439,57.3935452" mask="url(#9.discuss-d)" opacity=".7" transform="rotate(-35 87.08 48.137)"/>
    </g>
    <g transform="translate(97 28)">
      <rect width="258" height="198" x="5" y="5" fill="#B2D5ED" rx="6"/>
      <rect width="258" height="198" fill="#C5E8FF" rx="6"/>
      <circle cx="20" cy="20" r="4" fill="#FFF"/>
      <circle cx="38" cy="20" r="4" fill="#FFF"/>
      <circle cx="56" cy="20" r="4" fill="#FFF"/>
      <path stroke="#FFF" d="M17 38.5L241.117787 38.5M17 111.5L181.117787 111.5M17 131.5L221.117787 131.5M17 151.5L221.117787 151.5"/>
    </g>
    <g transform="translate(114 78)">
      <rect width="142" height="47" fill="#7B9FFF" rx="6"/>
      <circle cx="33.5" cy="23.5" r="13.5" fill="#FFF"/>
      <path stroke="#FFF" d="M57 14.5L129 14.5M57 24.5L129 24.5M57 34.5L129 34.5"/>
    </g>
    <g transform="translate(265 78)">
      <g transform="translate(.1 .983)">
        <mask id="9.discuss-f" fill="#fff">
          <use xlink:href="#9.discuss-e"/>
        </mask>
        <use fill="#00C1B9" xlink:href="#9.discuss-e"/>
        <path fill="#FFF" d="M-0.823270463,-5 C4.78141154,35.3956905 21.2325916,54.7703917 48.5302697,53.1241035 C78.3740099,51.3242656 103.53024,45.7040954 119.586823,66.0280987 L119.586823,83.3132857 L-2,83.3132857 L-0.823270463,-5 Z" mask="url(#9.discuss-f)" opacity=".2"/>
      </g>
      <g transform="translate(18.577 14.188)">
        <rect width="8.056" height="48.356" fill="#5EDBD6"/>
        <path fill="#FFF" d="M0,16.1188119 L8.05633803,16.1188119 L8.05633803,45.3564356 C8.05633803,47.0132899 6.71319228,48.3564356 5.05633803,48.3564356 L3,48.3564356 C1.34314575,48.3564356 2.41027941e-15,47.0132899 0,45.3564356 L0,16.1188119 L0,16.1188119 Z"/>
        <g transform="translate(15.38)">
          <rect width="8.056" height="48.356" fill="#5EDBD6"/>
          <path fill="#FFF" d="M0,8.05940594 L8.05633803,8.05940594 L8.05633803,45.3564356 C8.05633803,47.0132899 6.71319228,48.3564356 5.05633803,48.3564356 L3,48.3564356 C1.34314575,48.3564356 2.02906125e-16,47.0132899 0,45.3564356 L0,8.05940594 L0,8.05940594 Z"/>
        </g>
        <g transform="translate(30.76)">
          <rect width="8.056" height="48.356" fill="#5EDBD6"/>
          <path fill="#FFF" d="M0,25.6435644 L8.05633803,25.6435644 L8.05633803,45.3564356 C8.05633803,47.0132899 6.71319228,48.3564356 5.05633803,48.3564356 L3,48.3564356 C1.34314575,48.3564356 -2.41183085e-16,47.0132899 0,45.3564356 L0,25.6435644 L0,25.6435644 Z"/>
        </g>
        <g transform="translate(46.14)">
          <rect width="8.056" height="48.356" fill="#5EDBD6"/>
          <path fill="#FFF" d="M0,2.1980198 L8.05633803,2.1980198 L8.05633803,45.3564356 C8.05633803,47.0132899 6.71319228,48.3564356 5.05633803,48.3564356 L3,48.3564356 C1.34314575,48.3564356 2.02906125e-16,47.0132899 0,45.3564356 L0,2.1980198 L0,2.1980198 Z"/>
        </g>
        <g transform="translate(61.521)">
          <rect width="8.056" height="48.356" fill="#5EDBD6"/>
          <path fill="#FFF" d="M0,11.7227723 L8.05633803,11.7227723 L8.05633803,45.3564356 C8.05633803,47.0132899 6.71319228,48.3564356 5.05633803,48.3564356 L3,48.3564356 C1.34314575,48.3564356 2.02906125e-16,47.0132899 0,45.3564356 L0,11.7227723 L0,11.7227723 Z"/>
        </g>
      </g>
    </g>
    <g transform="translate(472 211)">
      <path fill="#00C1B9" d="M1.56319402e-13 83.1955364C4.49590441 84.9294413 7.31172273 88.1775519 8.44745494 92.9398682 11.7149075 91.9324552 13.3486338 91.4287486 13.3486338 91.4287486L8.96613645 94.6969608C13.7770882 104.582254 19.6485828 108.346666 26.5806204 105.990196 36.9786767 102.455493 30.4279859 88.688515 21.6049169 84.6638673 15.7228708 81.9807688 8.52123184 81.4913252 1.56319402e-13 83.1955364zM.961231582 26.6200039C4.10172555 30.2967458 5.67197253 34.404278 5.67197253 38.9426004 5.67197253 45.7500839 4.4515073 52.8264006 6.8739702 59.3199097L14.3200125 57.8108973 7.64062205 62.192434C12.5943145 71.8252852 19.5413823 76.1811611 28.4818254 75.2600617 34.8426506 67.9598858 35.6838382 58.8044285 31.0053882 47.79369 26.3269381 36.7829514 16.3122193 29.725056.961231582 26.6200039zM41.664716 56.7177762C31.1406991 28.3846585 44.4547254 9.47873313 81.6067949-2.48689958e-14 78.7861532 5.18057616 77.1906222 10.1340174 76.820202 14.8603239 76.2645716 21.9497835 75.6156109 25.7225355 74.6639307 28.3588881L61.3399248 27.273068 73.937114 31.0976769C71.7365148 38.6294085 67.5374517 44.6521074 61.3399248 49.1657737 55.1423979 53.67944 48.583995 56.1967742 41.664716 56.7177762zM86.4359241 39.1391896C84.2844805 45.7888671 78.9928124 52.2117563 70.5609198 58.4078572 57.913081 67.7020085 53.7804127 71.8826348 49.9628126 88.9033332 51.5430117 86.2260974 55.1813329 84.2353562 60.877776 82.9311095 66.5742192 81.6268627 71.4399649 79.4651946 75.4750129 76.4461049L73.2740461 69.6684809 77.6381577 74.5642831C81.8999068 70.1933381 84.5843485 65.0822516 85.6914826 59.2310236 86.7986166 53.3797957 87.0467638 46.6825176 86.4359241 39.1391896zM48.808828 108.218043C51.2426535 95.8219218 59.9876868 89.1779019 75.043928 88.2859829L73.3607818 93.7232808 77.9578704 88.2859829C83.6678723 88.6667 88.5883835 90.3213369 92.7194041 93.2498938 89.0008578 94.6989996 84.9576101 97.2492904 80.5896609 100.900766 69.5459941 111.217241 58.9523831 113.656334 48.808828 108.218043z"/>
      <path stroke="#0D1E54" d="M74.2771356 4.94514735C44.8888539 29.170334 32.2114553 70.4260853 36.2449399 128.712401M7.12792111 30.6975011C23.7210852 50.6156301 33.4267581 84.0160666 36.2449399 130.898811M8.46571912 84.866075C20.6123543 90.9641264 29.8720945 105.579569 36.2449399 128.712401M83.7471231 93.2246425C60.8111169 95.6804157 44.7336665 107.509669 35.5147721 128.712401"/>
      <path stroke="#0D1E54" d="M84.8751927,46.1611248 C82.2778277,55.7186824 76.7735169,63.605598 68.3622602,69.8218714 C55.7453751,79.1462815 39.7167786,93.7270021 36.2449399,130.898811"/>
      <g transform="translate(9.705 123.85)">
        <mask id="9.discuss-h" fill="#fff">
          <use xlink:href="#9.discuss-g"/>
        </mask>
        <use fill="#0D1E54" xlink:href="#9.discuss-g"/>
        <path stroke="#FFF" d="M-.603896104 3.95807873L58.0492543 3.95807873M-.603896104 7.5957094L58.0492543 7.5957094" mask="url(#9.discuss-h)"/>
        <path stroke="#FFF" d="M-3.94009282,28.4404049 C-0.676663563,32.378802 14.7142587,10.0007573 10.4813911,32.776946 C6.24852359,55.5531346 1.0213103,71.883539 16.0652833,49.0885346 C31.1092563,26.2935303 34.0880926,36.0668268 46.0686734,50.9456616 C58.0492543,65.8244964 31.4352036,20.3485239 42.6323934,20.3485239 C53.8295833,20.3485239 60.1270876,24.4731882 65.6691725,18.118881 C69.199643,14.0710011 49.6793144,15.1874049 28.7226791,15.273353 C16.781872,15.3223251 4.93398293,12.9117826 -4.78510851,14.3529102" mask="url(#9.discuss-h)" opacity=".3"/>
      </g>
    </g>
    <g transform="matrix(-1 0 0 1 448 111)">
      <g transform="translate(20.052)">
        <path fill="#101010" d="M41.6370069,18.708523 C44.4989882,9.56911507 41.9532436,3.66247258 33.9997731,0.988595566 C22.0695673,-3.02221996 16.5574261,6.07183181 14.6746757,12.1423409 C12.7919252,18.2128499 10.7396712,25.1724721 5.41222726,29.6220877 C0.0847832931,34.0717033 -3.78067311,45.6694465 6.14530307,51.0563402 C16.0712793,56.443234 29.4024086,48.073906 39.3961874,43.414487 C49.3899662,38.755068 38.0800335,30.8532926 39.8585202,25.1724721 C41.044178,21.3852583 41.6370069,19.2306087 41.6370069,18.708523 Z"/>
        <g transform="translate(17.976 9.056)">
          <mask id="9.discuss-j" fill="#fff">
            <use xlink:href="#9.discuss-i"/>
          </mask>
          <use fill="#FFC2AA" xlink:href="#9.discuss-i"/>
          <path fill="#D8947A" d="M16.1393785,25.2440377 C13.2557866,25.257928 11.1336393,24.3457054 9.77293664,22.5073698 C10.3961595,26.9492566 13.8267418,30.1782652 20.0646835,32.1943955 C26.3026252,34.2105258 24.9941903,31.8937399 16.1393785,25.2440377 Z" mask="url(#9.discuss-j)"/>
        </g>
      </g>
      <g transform="translate(112 14)">
        <mask id="9.discuss-l" fill="#fff">
          <use xlink:href="#9.discuss-k"/>
        </mask>
        <use fill="#FFC2AA" xlink:href="#9.discuss-k"/>
        <path stroke="#D8947A" stroke-width=".5" d="M12.3984744 6.9677991C14.4998043 8.02283165 16.0849056 9.46675146 17.1537784 11.2995585M18.9498406 2.18491734L13.6892337 7.67619245M21.1008364 3.07807938L15.7134685 9.13367882M22.035853 4.73273484L17.0103724 11.122263M12.8001845 13.8323323C12.6162216 11.6883067 11.2594431 10.2537933 8.72984909 9.52879212 9.43902997 11.6906259 9.23821135 13.5365917 8.12739323 15.0666896" mask="url(#9.discuss-l)"/>
        <path fill="#D8947A" d="M11.7600002,18.8211061 C7.39043285,21.3929963 4.05875485,23.6126278 1.76496623,25.4800005 C-0.528822393,27.3473732 1.08946379,27.0914382 6.61982478,24.7121956 L11.7600002,18.8211061 Z" mask="url(#9.discuss-l)"/>
      </g>
      <ellipse cx="54.5" cy="21" stroke="#101010" stroke-width=".5" rx="2.5" ry="3"/>
      <ellipse cx="61.5" cy="21" stroke="#101010" stroke-width=".5" rx="2.5" ry="3"/>
      <g transform="translate(49.948 245.622)">
        <g transform="translate(2.103)">
          <mask id="9.discuss-n" fill="#fff">
            <use xlink:href="#9.discuss-m"/>
          </mask>
          <use fill="#FFC2AA" xlink:href="#9.discuss-m"/>
          <polygon fill="#D8947A" points="12.406 1.385 .948 6.162 1.608 .378" mask="url(#9.discuss-n)"/>
        </g>
        <path fill="#0F0000" d="M2.21851042,8.6866865 C0.739503473,8.90881758 -9.09494702e-13,10.2056843 -9.09494702e-13,12.5772865 C-9.09494702e-13,14.9488888 -9.09494702e-13,20.2522313 -9.09494702e-13,28.487314 L2.10349925,28.487314 L2.80390764,18.43098 L6.95301177,25.9514435 C7.81837379,27.5199565 9.45673548,28.5056647 11.2478801,28.5354193 L25.5261938,28.7726118 L25.5261938,28.7726118 C28.2013168,28.779707 28.4079158,27.9236102 26.1459909,26.2043213 C23.8840659,24.4850325 21.4070208,23.1424001 18.7148554,22.1764242 C16.790616,24.4122954 14.4915098,24.8571635 11.8175368,23.5110285 C9.14356387,22.1648936 5.9438884,17.2234462 2.21851042,8.6866865 Z"/>
      </g>
      <g transform="rotate(10 -1373.98 153.209)">
        <g transform="translate(2.103)">
          <mask id="9.discuss-p" fill="#fff">
            <use xlink:href="#9.discuss-o"/>
          </mask>
          <use fill="#FFC2AA" xlink:href="#9.discuss-o"/>
          <polygon fill="#D8947A" points="11.345 2.018 1.066 6.7 1.726 .916" mask="url(#9.discuss-p)"/>
        </g>
        <path fill="#0F0000" d="M2.21851042,8.6866865 C0.739503473,8.90881758 0,10.2056843 0,12.5772865 C0,14.9488888 0,20.2522313 0,28.487314 L2.10349925,28.487314 L2.80390764,18.43098 L6.95301177,25.9514435 C7.81837379,27.5199565 9.45673548,28.5056647 11.2478801,28.5354193 L25.5261938,28.7726118 L25.5261938,28.7726118 C28.2013168,28.779707 28.4079158,27.9236102 26.1459909,26.2043213 C23.8840659,24.4850325 21.4070208,23.1424001 18.7148554,22.1764242 C16.790616,24.4122954 14.4915098,24.8571635 11.8175368,23.5110285 C9.14356387,22.1648936 5.9438884,17.2234462 2.21851042,8.6866865 Z"/>
      </g>
      <g transform="translate(7.023 98.1)">
        <mask id="9.discuss-r" fill="#fff">
          <use xlink:href="#9.discuss-q"/>
        </mask>
        <use fill="#00648E" xlink:href="#9.discuss-q"/>
        <path stroke="#084580" stroke-width=".5" d="M53.0106648 33.1930325L39.038535 74.9823154M21.8801501 3.12500015L62.2538817 5.13557174M27.9507025-4.86277685e-14L27.9507025 3.64600887M47.9507025 1L47.9507025 4.64600887 47.2958315 21.913312C47.2554476 22.9781336 48.0859185 23.8740797 49.1507401 23.9144636 49.175103 23.9153876 49.1994812 23.9158497 49.2238616 23.9158497 50.3306277 23.9158497 51.2278389 23.0186385 51.2278389 21.9118723L51.2278389 1 51.2278389 1M59.9507025 1L59.9507025 4.64600887C61.4861553 48.5769426 62.2538817 72.8019404 62.2538817 77.3210022 62.2538817 84.0995949 61.5349571 113.156305 56.9256907 145.450733M36.9507025-4.26325641e-14L36.9507025 3.64600887 34.6259398 13.9252751 26.0107364 22.0456466C28.516072 32.3331882 27.6864075 44.660385 23.5217427 59.0272372 19.3570779 73.3940893 12.5577454 100.821833 3.12374518 141.310467M.666240427 140.746629L14.4868503 143.730449M45.02919 145.13323L58.4250378 145.768236" mask="url(#9.discuss-r)"/>
      </g>
      <path fill="#FFC2AA" d="M28.0173114,106.041237 C31.2241269,108.413675 32.8275347,110.047756 32.8275347,110.943481 C32.8275347,112.287068 32.0927097,115.284882 34.4635988,118.802774 L41.6485173,112.025653 C40.816758,108.048127 37.8764305,104.704317 32.8275347,101.994224 C27.778639,99.2841299 26.1752312,100.633134 28.0173114,106.041237 Z"/>
      <g transform="translate(5.433 31.377)">
        <mask id="9.discuss-t" fill="#fff">
          <use xlink:href="#9.discuss-s"/>
        </mask>
        <use fill="#FF83B6" xlink:href="#9.discuss-s"/>
        <path fill="#E977A6" d="M69.1126821,34.7137594 C69.4370892,41.5180234 66.9199813,45.3627882 61.5613585,46.2480536 C57.978084,46.8400245 49.7149484,46.8400245 40.7637148,46.2480536 C34.4595903,45.8311436 29.8455397,40.9673595 26.921563,31.6567012 L24.0172279,34.7137594 L23.470171,48.5300902 L26.921563,67.6808474 L65.9311623,69.2603747 L71.8143962,33.564987 L69.1126821,34.7137594 Z" mask="url(#9.discuss-t)"/>
        <path fill="#E977A6" d="M13.4203856 53.389389C12.7964323 54.0932872 12.0554128 54.4452363 11.1973271 54.4452363 10.3392413 54.4452363 8.88696365 54.3400059 6.84049406 54.129545L28.573533 72.9681523 30.8890388 69.9646249 13.4203856 53.389389zM84.4952378 17.3702494C87.0357468 18.2215172 88.5524991 19.1913751 89.0454948 20.2798231 89.5384904 21.3682712 89.8168598 22.9674329 89.8806028 25.0773084L109.757272 1.02623737 106.487807-2.44279655 84.4952378 17.3702494z" mask="url(#9.discuss-t)"/>
        <g fill="#FFF" mask="url(#9.discuss-t)" opacity=".4">
          <g transform="rotate(-25 3.634 68.083)">
            <circle cx="1" cy="1" r="1"/>
            <circle cx="9" cy="1" r="1"/>
            <circle cx="17" cy="1" r="1"/>
            <circle cx="25" cy="1" r="1"/>
            <circle cx="32" cy="1" r="1"/>
            <circle cx="40" cy="1" r="1"/>
            <circle cx="48" cy="1" r="1"/>
            <circle cx="56" cy="1" r="1"/>
            <circle cx="63" cy="1" r="1"/>
            <circle cx="71" cy="1" r="1"/>
            <circle cx="79" cy="1" r="1"/>
            <circle cx="87" cy="1" r="1"/>
            <circle cx="95" cy="1" r="1"/>
            <circle cx="102" cy="1" r="1"/>
            <circle cx="110" cy="1" r="1"/>
            <circle cx="118" cy="1" r="1"/>
            <circle cx="1" cy="9" r="1"/>
            <circle cx="9" cy="9" r="1"/>
            <circle cx="17" cy="9" r="1"/>
            <circle cx="25" cy="9" r="1"/>
            <circle cx="32" cy="9" r="1"/>
            <circle cx="40" cy="9" r="1"/>
            <circle cx="48" cy="9" r="1"/>
            <circle cx="56" cy="9" r="1"/>
            <circle cx="63" cy="9" r="1"/>
            <circle cx="71" cy="9" r="1"/>
            <circle cx="79" cy="9" r="1"/>
            <circle cx="87" cy="9" r="1"/>
            <circle cx="95" cy="9" r="1"/>
            <circle cx="102" cy="9" r="1"/>
            <circle cx="110" cy="9" r="1"/>
            <circle cx="118" cy="9" r="1"/>
            <circle cx="1" cy="17" r="1"/>
            <circle cx="9" cy="17" r="1"/>
            <circle cx="17" cy="17" r="1"/>
            <circle cx="25" cy="17" r="1"/>
            <circle cx="32" cy="17" r="1"/>
            <circle cx="40" cy="17" r="1"/>
            <circle cx="48" cy="17" r="1"/>
            <circle cx="56" cy="17" r="1"/>
            <circle cx="63" cy="17" r="1"/>
            <circle cx="71" cy="17" r="1"/>
            <circle cx="79" cy="17" r="1"/>
            <circle cx="87" cy="17" r="1"/>
            <circle cx="95" cy="17" r="1"/>
            <circle cx="102" cy="17" r="1"/>
            <circle cx="110" cy="17" r="1"/>
            <circle cx="118" cy="17" r="1"/>
            <circle cx="1" cy="24" r="1"/>
            <circle cx="9" cy="24" r="1"/>
            <circle cx="17" cy="24" r="1"/>
            <circle cx="25" cy="24" r="1"/>
            <circle cx="32" cy="24" r="1"/>
            <circle cx="40" cy="24" r="1"/>
            <circle cx="48" cy="24" r="1"/>
            <circle cx="56" cy="24" r="1"/>
            <circle cx="63" cy="24" r="1"/>
            <circle cx="71" cy="24" r="1"/>
            <circle cx="79" cy="24" r="1"/>
            <circle cx="87" cy="24" r="1"/>
            <circle cx="95" cy="24" r="1"/>
            <circle cx="102" cy="24" r="1"/>
            <circle cx="110" cy="24" r="1"/>
            <circle cx="118" cy="24" r="1"/>
            <circle cx="1" cy="32" r="1"/>
            <circle cx="9" cy="32" r="1"/>
            <circle cx="17" cy="32" r="1"/>
            <circle cx="25" cy="32" r="1"/>
            <circle cx="32" cy="32" r="1"/>
            <circle cx="40" cy="32" r="1"/>
            <circle cx="48" cy="32" r="1"/>
            <circle cx="56" cy="32" r="1"/>
            <circle cx="63" cy="32" r="1"/>
            <circle cx="71" cy="32" r="1"/>
            <circle cx="79" cy="32" r="1"/>
            <circle cx="87" cy="32" r="1"/>
            <circle cx="95" cy="32" r="1"/>
            <circle cx="102" cy="32" r="1"/>
            <circle cx="110" cy="32" r="1"/>
            <circle cx="118" cy="32" r="1"/>
            <circle cx="1" cy="40" r="1"/>
            <circle cx="9" cy="40" r="1"/>
            <circle cx="17" cy="40" r="1"/>
            <circle cx="25" cy="40" r="1"/>
            <circle cx="32" cy="40" r="1"/>
            <circle cx="40" cy="40" r="1"/>
            <circle cx="48" cy="40" r="1"/>
            <circle cx="56" cy="40" r="1"/>
            <circle cx="63" cy="40" r="1"/>
            <circle cx="71" cy="40" r="1"/>
            <circle cx="79" cy="40" r="1"/>
            <circle cx="87" cy="40" r="1"/>
            <circle cx="95" cy="40" r="1"/>
            <circle cx="102" cy="40" r="1"/>
            <circle cx="110" cy="40" r="1"/>
            <circle cx="118" cy="40" r="1"/>
            <circle cx="1" cy="48" r="1"/>
            <circle cx="9" cy="48" r="1"/>
            <circle cx="17" cy="48" r="1"/>
            <circle cx="25" cy="48" r="1"/>
            <circle cx="32" cy="48" r="1"/>
            <circle cx="40" cy="48" r="1"/>
            <circle cx="48" cy="48" r="1"/>
            <circle cx="56" cy="48" r="1"/>
            <circle cx="63" cy="48" r="1"/>
            <circle cx="71" cy="48" r="1"/>
            <circle cx="79" cy="48" r="1"/>
            <circle cx="87" cy="48" r="1"/>
            <circle cx="95" cy="48" r="1"/>
            <circle cx="102" cy="48" r="1"/>
            <circle cx="110" cy="48" r="1"/>
            <circle cx="118" cy="48" r="1"/>
            <circle cx="1" cy="56" r="1"/>
            <circle cx="9" cy="56" r="1"/>
            <circle cx="17" cy="56" r="1"/>
            <circle cx="25" cy="56" r="1"/>
            <circle cx="32" cy="56" r="1"/>
            <circle cx="40" cy="56" r="1"/>
            <circle cx="48" cy="56" r="1"/>
            <circle cx="56" cy="56" r="1"/>
            <circle cx="63" cy="56" r="1"/>
            <circle cx="71" cy="56" r="1"/>
            <circle cx="79" cy="56" r="1"/>
            <circle cx="87" cy="56" r="1"/>
            <circle cx="95" cy="56" r="1"/>
            <circle cx="102" cy="56" r="1"/>
            <circle cx="110" cy="56" r="1"/>
            <circle cx="118" cy="56" r="1"/>
            <circle cx="1" cy="56" r="1"/>
            <circle cx="9" cy="56" r="1"/>
            <circle cx="17" cy="56" r="1"/>
            <circle cx="25" cy="56" r="1"/>
            <circle cx="32" cy="56" r="1"/>
            <circle cx="40" cy="56" r="1"/>
            <circle cx="48" cy="56" r="1"/>
            <circle cx="56" cy="56" r="1"/>
            <circle cx="63" cy="56" r="1"/>
            <circle cx="71" cy="56" r="1"/>
            <circle cx="79" cy="56" r="1"/>
            <circle cx="87" cy="56" r="1"/>
            <circle cx="95" cy="56" r="1"/>
            <circle cx="102" cy="56" r="1"/>
            <circle cx="110" cy="56" r="1"/>
            <circle cx="118" cy="56" r="1"/>
            <circle cx="1" cy="63" r="1"/>
            <circle cx="9" cy="63" r="1"/>
            <circle cx="17" cy="63" r="1"/>
            <circle cx="25" cy="63" r="1"/>
            <circle cx="32" cy="63" r="1"/>
            <circle cx="40" cy="63" r="1"/>
            <circle cx="48" cy="63" r="1"/>
            <circle cx="56" cy="63" r="1"/>
            <circle cx="63" cy="63" r="1"/>
            <circle cx="71" cy="63" r="1"/>
            <circle cx="79" cy="63" r="1"/>
            <circle cx="87" cy="63" r="1"/>
            <circle cx="95" cy="63" r="1"/>
            <circle cx="102" cy="63" r="1"/>
            <circle cx="110" cy="63" r="1"/>
            <circle cx="118" cy="63" r="1"/>
            <circle cx="1" cy="71" r="1"/>
            <circle cx="9" cy="71" r="1"/>
            <circle cx="17" cy="71" r="1"/>
            <circle cx="25" cy="71" r="1"/>
            <circle cx="32" cy="71" r="1"/>
            <circle cx="40" cy="71" r="1"/>
            <circle cx="48" cy="71" r="1"/>
            <circle cx="56" cy="71" r="1"/>
            <circle cx="63" cy="71" r="1"/>
            <circle cx="71" cy="71" r="1"/>
            <circle cx="79" cy="71" r="1"/>
            <circle cx="87" cy="71" r="1"/>
            <circle cx="95" cy="71" r="1"/>
            <circle cx="102" cy="71" r="1"/>
            <circle cx="110" cy="71" r="1"/>
            <circle cx="118" cy="71" r="1"/>
            <circle cx="1" cy="79" r="1"/>
            <circle cx="9" cy="79" r="1"/>
            <circle cx="17" cy="79" r="1"/>
            <circle cx="25" cy="79" r="1"/>
            <circle cx="32" cy="79" r="1"/>
            <circle cx="40" cy="79" r="1"/>
            <circle cx="48" cy="79" r="1"/>
            <circle cx="56" cy="79" r="1"/>
            <circle cx="63" cy="79" r="1"/>
            <circle cx="71" cy="79" r="1"/>
            <circle cx="79" cy="79" r="1"/>
            <circle cx="87" cy="79" r="1"/>
            <circle cx="95" cy="79" r="1"/>
            <circle cx="102" cy="79" r="1"/>
            <circle cx="110" cy="79" r="1"/>
            <circle cx="118" cy="79" r="1"/>
            <circle cx="1" cy="87" r="1"/>
            <circle cx="9" cy="87" r="1"/>
            <circle cx="17" cy="87" r="1"/>
            <circle cx="25" cy="87" r="1"/>
            <circle cx="32" cy="87" r="1"/>
            <circle cx="40" cy="87" r="1"/>
            <circle cx="48" cy="87" r="1"/>
            <circle cx="56" cy="87" r="1"/>
            <circle cx="63" cy="87" r="1"/>
            <circle cx="71" cy="87" r="1"/>
            <circle cx="79" cy="87" r="1"/>
            <circle cx="87" cy="87" r="1"/>
            <circle cx="95" cy="87" r="1"/>
            <circle cx="102" cy="87" r="1"/>
            <circle cx="110" cy="87" r="1"/>
            <circle cx="118" cy="87" r="1"/>
            <circle cx="1" cy="94" r="1"/>
            <circle cx="9" cy="94" r="1"/>
            <circle cx="17" cy="94" r="1"/>
            <circle cx="25" cy="94" r="1"/>
            <circle cx="32" cy="94" r="1"/>
            <circle cx="40" cy="94" r="1"/>
            <circle cx="48" cy="94" r="1"/>
            <circle cx="56" cy="94" r="1"/>
            <circle cx="63" cy="94" r="1"/>
            <circle cx="71" cy="94" r="1"/>
            <circle cx="79" cy="94" r="1"/>
            <circle cx="87" cy="94" r="1"/>
            <circle cx="95" cy="94" r="1"/>
            <circle cx="102" cy="94" r="1"/>
            <circle cx="110" cy="94" r="1"/>
            <circle cx="118" cy="94" r="1"/>
            <circle cx="1" cy="102" r="1"/>
            <circle cx="9" cy="102" r="1"/>
            <circle cx="17" cy="102" r="1"/>
            <circle cx="25" cy="102" r="1"/>
            <circle cx="32" cy="102" r="1"/>
            <circle cx="40" cy="102" r="1"/>
            <circle cx="48" cy="102" r="1"/>
            <circle cx="56" cy="102" r="1"/>
            <circle cx="63" cy="102" r="1"/>
            <circle cx="71" cy="102" r="1"/>
            <circle cx="79" cy="102" r="1"/>
            <circle cx="87" cy="102" r="1"/>
            <circle cx="95" cy="102" r="1"/>
            <circle cx="102" cy="102" r="1"/>
            <circle cx="110" cy="102" r="1"/>
            <circle cx="118" cy="102" r="1"/>
            <circle cx="1" cy="110" r="1"/>
            <circle cx="9" cy="110" r="1"/>
            <circle cx="17" cy="110" r="1"/>
            <circle cx="25" cy="110" r="1"/>
            <circle cx="32" cy="110" r="1"/>
            <circle cx="40" cy="110" r="1"/>
            <circle cx="48" cy="110" r="1"/>
            <circle cx="56" cy="110" r="1"/>
            <circle cx="63" cy="110" r="1"/>
            <circle cx="71" cy="110" r="1"/>
            <circle cx="79" cy="110" r="1"/>
            <circle cx="87" cy="110" r="1"/>
            <circle cx="95" cy="110" r="1"/>
            <circle cx="102" cy="110" r="1"/>
            <circle cx="110" cy="110" r="1"/>
            <circle cx="118" cy="110" r="1"/>
          </g>
        </g>
      </g>
      <path stroke="#101010" stroke-width=".5" d="M57 21L59 21M52 21L42.9093473 18.563831"/>
    </g>
    <g transform="matrix(-1 0 0 1 182 242)">
      <path stroke="#00628A" d="M25.1195092,68.7896943 L61.5297672,102.550516"/>
      <path stroke="#00628A" d="M16.1195092,68.7896943 L52.5297672,102.550516" transform="matrix(-1 0 0 1 68.65 0)"/>
      <g transform="translate(3.74 68.45)">
        <mask id="9.discuss-v" fill="#fff">
          <use xlink:href="#9.discuss-u"/>
        </mask>
        <use fill="#A9E5F1" xlink:href="#9.discuss-u"/>
        <rect width="64" height="22" x="7.925" y="-19" fill="#00628A" mask="url(#9.discuss-v)"/>
      </g>
      <g transform="matrix(-1 0 0 1 72.74 68.45)">
        <mask id="9.discuss-x" fill="#fff">
          <use xlink:href="#9.discuss-w"/>
        </mask>
        <use fill="#A9E5F1" xlink:href="#9.discuss-w"/>
        <rect width="64" height="22" x="7.925" y="-19" fill="#00628A" mask="url(#9.discuss-x)"/>
      </g>
      <mask id="9.discuss-z" fill="#fff">
        <use xlink:href="#9.discuss-y"/>
      </mask>
      <use fill="#A9E5F1" xlink:href="#9.discuss-y"/>
      <path fill="#0094CF" d="M87.1849099,4.92953111 C81.5151792,9.16674785 77.692458,17.9488115 75.7167462,31.2757221 C72.7531784,51.266088 73.3648903,66.3603025 51.3047765,66.9236998 C29.2446628,67.487097 0.223926744,68.8234605 0.223926744,64.6789938 C0.223926744,60.5345271 -8.64700526,69.3820103 -0.677471785,72.5861403 C4.63555053,74.722227 22.4274727,75.5202558 52.6982948,74.9802267 L91.213524,66.2765479 L95.801807,14.1631107 L87.1849099,4.92953111 Z" mask="url(#9.discuss-z)"/>
    </g>
    <g transform="matrix(-1 0 0 1 264 169)">
      <g transform="translate(105)">
        <path fill="#7C2412" d="M5.27851307,18.1011028 C3.75950436,16.1475753 3.20096102,13.9976428 3.60288307,11.6513053 C0.943756638,10.6622669 0.159796194,8.60851383 1.25100174,5.49004594 C2.88781007,0.812344115 7.95289789,5.7184842 13.9980681,2.61311932 C20.0432383,-0.492245558 23.4023892,1.13418028 23.4023892,4.5204331 C26.6531385,4.5204331 28.7137659,6.61322825 29.5842717,10.7988185 C30.8900303,17.077204 26.0533775,29.6904183 23.4023892,28.8738572 C20.8487673,28.087287 7.42639036,20.8633893 5.27851307,18.1011028 Z"/>
        <g transform="translate(4.279 12)">
          <mask id="9.discuss-B" fill="#fff">
            <use xlink:href="#9.discuss-A"/>
          </mask>
          <use fill="#FFD1BE" xlink:href="#9.discuss-A"/>
          <path fill="#F8C5B1" d="M10.059949,23.5155896 C12.2853775,23.0316585 14.154802,21.661701 15.6682225,19.4057169 C15.5400678,25.9291827 13.4559533,29.6069848 9.41587905,30.4391235 C5.37580478,31.2712621 5.59049478,28.9634175 10.059949,23.5155896 Z" mask="url(#9.discuss-B)"/>
        </g>
        <circle cx="6" cy="21" r="3" stroke="#4C1515" stroke-width=".5"/>
        <circle cx="14" cy="21" r="3" stroke="#4C1515" stroke-width=".5"/>
        <path stroke="#4C1515" stroke-width=".5" d="M9 21L11 21M16.8961991 21L22.7875953 18.3861367"/>
      </g>
      <g transform="matrix(-1 0 0 1 165 40)">
        <mask id="9.discuss-D" fill="#fff">
          <use xlink:href="#9.discuss-C"/>
        </mask>
        <use fill="#0089FF" xlink:href="#9.discuss-C"/>
        <path fill="#0065DA" d="M17.3092288,78 L62.698333,76.4391568 C40.8126259,70.5080635 29.1541192,64.1825538 27.7228131,57.4626276 C26.2915069,50.7427015 24.4793835,39.7714853 22.286443,24.5489791 L18.1840718,29.3401264 L18.1840718,39.9826095 L17.3092288,78 Z" mask="url(#9.discuss-D)"/>
        <polygon fill="#0065DA" points="59.479 41.043 57.871 26.083 67.525 44.571 62 47.241" mask="url(#9.discuss-D)"/>
      </g>
      <g transform="translate(109 81)">
        <mask id="9.discuss-F" fill="#fff">
          <use xlink:href="#9.discuss-E"/>
        </mask>
        <use fill="#FFD1BE" xlink:href="#9.discuss-E"/>
        <path fill="#F8C5B1" d="M18.9816792,14.8006523 C35.5389254,20.382643 46.050277,22.7591515 50.5157343,21.9301776 C54.9811915,21.1012038 56.7853912,16.1616852 55.9283332,7.11162194 L56.3842397,23.4204542 L48.4365639,29.1503812 L23.4987879,19.1524175 L18.9816792,14.8006523 Z" mask="url(#9.discuss-F)"/>
      </g>
      <g transform="matrix(-1 0 0 1 101.411 79.947)">
        <mask id="9.discuss-H" fill="#fff">
          <use xlink:href="#9.discuss-G"/>
        </mask>
        <use fill="#FFD1BE" xlink:href="#9.discuss-G"/>
        <path stroke="#F8C5B1" stroke-linecap="round" stroke-width=".5" d="M58.562547,24.821147 C58.6974431,23.5892859 58.2117801,22.9733554 57.1055579,22.9733554 C55.9993357,22.9733554 53.5109128,22.9733554 49.6402892,22.9733554" mask="url(#9.discuss-H)"/>
        <path stroke="#F8C5B1" stroke-linecap="round" stroke-width=".5" d="M63.562547,24.821147 C63.8516801,23.0478635 63.0326838,22.0985996 61.1055579,21.9733554 C59.178432,21.8481111 56.6900091,21.8481111 53.6402892,21.9733554" mask="url(#9.discuss-H)"/>
      </g>
      <g transform="translate(0 114.144)">
        <g transform="translate(0 64.856)">
          <g transform="rotate(39 16.497 50.806)">
            <mask id="9.discuss-J" fill="#fff">
              <use xlink:href="#9.discuss-I"/>
            </mask>
            <use fill="#FFD1BE" xlink:href="#9.discuss-I"/>
            <polygon fill="#F8C5B1" points="-2.55 14.814 14.657 14.488 12.152 6.64" mask="url(#9.discuss-J)"/>
          </g>
          <path fill="#0F0000" d="M36.8398652,22.7363296 C33.8015331,26.2483532 29.3093103,26.2483532 23.3631968,22.7363296 C16.0837556,28.27153 10.8654792,31.3248432 7.70836752,31.8962694 C2.97270007,32.7534086 0,33.4056262 0,36.6667146 L21.6162807,36.6667146 L29.0651523,31.8962694 L29.0651523,36.6667146 L36.8398652,36.6667146 C37.6174613,33.5753538 38.0062594,31.253623 38.0062594,29.7015221 C38.0062594,28.1494212 37.6174613,25.8276904 36.8398652,22.7363296 Z"/>
        </g>
        <g transform="translate(62 75.856)">
          <g transform="translate(19.35)">
            <mask id="9.discuss-L" fill="#fff">
              <use xlink:href="#9.discuss-K"/>
            </mask>
            <use fill="#FFD1BE" xlink:href="#9.discuss-K"/>
            <polygon fill="#F8C5B1" points="-.347 3.434 17.029 8.55 14.392 .318" mask="url(#9.discuss-L)"/>
          </g>
          <path fill="#0F0000" d="M36.8398652,11.7363296 C33.8015331,15.2483532 29.3093103,15.2483532 23.3631968,11.7363296 C16.0837556,17.27153 10.8654792,20.3248432 7.70836752,20.8962694 C2.97270007,21.7534086 0,22.4056262 0,25.6667146 L21.6162807,25.6667146 L29.0651523,20.8962694 L29.0651523,25.6667146 L36.8398652,25.6667146 C37.6174613,22.5753538 38.0062594,20.253623 38.0062594,18.7015221 C38.0062594,17.1494212 37.6174613,14.8276904 36.8398652,11.7363296 Z"/>
        </g>
        <g transform="translate(24.737 2.309)">
          <mask id="9.discuss-N" fill="#fff">
            <use xlink:href="#9.discuss-M"/>
          </mask>
          <use fill="#0A1741" xlink:href="#9.discuss-M"/>
          <path stroke="#324583" stroke-width=".5" d="M52.7356572 18.0902575C49.7535029 18.6752244 45.9756514 22.4292999 41.4021027 29.352484 36.828554 36.275668 28.3496928 50.5026346 15.9655189 72.0333837M25.1029187 73.3491889L-2.57511787 69.4394954" mask="url(#9.discuss-N)"/>
        </g>
        <g transform="translate(61.047)">
          <mask id="9.discuss-P" fill="#fff">
            <use xlink:href="#9.discuss-O"/>
          </mask>
          <use fill="#0D1E54" xlink:href="#9.discuss-O"/>
          <path stroke="#324583" stroke-width=".5" d="M88.2347687 4.74957442L41.8267594-.29464488M78.1117108.769871556C78.056289 14.8785533 70.6886385 20.8717252 56.0087592 18.749387 33.9889402 15.5658798 10.1395581 7.22964526 11.9607082 17.2838295 13.1748082 23.9866191 19.8252497 42.8648093 31.9120327 73.9184001M39.7237124 73.9184001L15.0593075 73.9184001" mask="url(#9.discuss-P)"/>
        </g>
      </g>
    </g>
    <g transform="matrix(-1 0 0 1 229 202)">
      <path fill="#9B9B9B" d="M5,0 L70,0 C71.6568542,-3.04359188e-16 73,1.34314575 73,3 L73,49 C73,50.6568542 71.6568542,52 70,52 L5,52 C3.34314575,52 2,50.6568542 2,49 L2,3 C2,1.34314575 3.34314575,3.04359188e-16 5,0 Z"/>
      <mask id="9.discuss-R" fill="#fff">
        <use xlink:href="#9.discuss-Q"/>
      </mask>
      <use fill="#DDE3FB" xlink:href="#9.discuss-Q"/>
      <polygon fill="#B4B8CC" points="23 33 32 52 -2 52" mask="url(#9.discuss-R)"/>
      <circle cx="34" cy="20" r="4" fill="#FFF" mask="url(#9.discuss-R)"/>
      <polygon fill="#727A9C" points="25 33 39 33 34.601 65.91 46.871 66.531 46.871 69 34 69 18 69"/>
      <polygon fill="#DDE3FB" points="23 33 39 33 32 69 16 69"/>
      <g transform="translate(22 52)">
        <mask id="9.discuss-T" fill="#fff">
          <use xlink:href="#9.discuss-S"/>
        </mask>
        <use fill="#727A9C" xlink:href="#9.discuss-S"/>
        <circle cx="5" cy="4" r="4" fill="#FFF" mask="url(#9.discuss-T)"/>
      </g>
    </g>
    <g transform="matrix(-1 0 0 1 294 271)">
      <polyline stroke="#0D1E54" points="16.436 113.156 16.436 3 197 3 197 113.156"/>
      <polyline stroke="#0D1E54" points="64.436 113.156 64.436 3 245 3 245 113.156"/>
      <rect width="181" height="6" fill="#0094CF"/>
      <rect width="80" height="6" x="181" fill="#00628A"/>
    </g>
  </g>
</svg>
